# xmcd
# 
# Track frame offsets:
#     150
#     24779
#     81286
#     106008
# 
# Disc length: 1499
# 
# Revision: 3
# Processed by: cddbd v1.5.2PL0 Copyright (c) Steve Scherf et al.
# Submitted via: fre:ac v1.0.31
# 
DISCID=1d05d904
DTITLE=堀裕子 - THE IDOLM@STER CINDERELLA MASTER 030 堀裕子
DYEAR=2014
DGENRE=Game
TTITLE0=ミラクルテレパシー
TTITLE1=ドラマ「目指せ!シンデレラNO.1! -堀裕子編-」
TTITLE2=ミラクルテレパシー (オリジナル・カラオケ)
TTITLE3=ボーナス・トラック
EXTD=
EXTT0=
EXTT1=
EXTT2=
EXTT3=
PLAYORDER=
